<?xml version="1.0" encoding="utf-8"?>
<!-- Generator: Adobe Illustrator 28.2.0, SVG Export Plug-In . SVG Version: 6.00 Build 0)  -->
<svg version="1.1" id="Layer_1" xmlns="http://www.w3.org/2000/svg" xmlns:xlink="http://www.w3.org/1999/xlink" x="0px" y="0px"
	 viewBox="0 0 150 150" enable-background="new 0 0 150 150" xml:space="preserve">
<g>
	<path fill="#025F55" d="M140,82.2c0-8.1-6.6-14.7-14.7-14.7c-1.2,0-2.4,0.1-3.5,0.4c-1.1-6.4-5.7-11.6-11.8-13.7
		c1.9-1.6,3.1-3.9,3.1-6.6c0-4.7-3.8-8.6-8.6-8.6c-4.7,0-8.6,3.8-8.6,8.6c0,2.6,1.2,5,3.1,6.6c-7,2.3-12.1,8.9-12.1,16.7
		c0,9.2,7.1,16.8,16.1,17.5c-5.3,3-9,8.5-9.6,14.8c0,0.3-0.1,0.5-0.1,0.8c0,0.1,0,0.3,0,0.4c0,0.1,0,0.3,0,0.4c0,0.2,0,0.3,0,0.5
		c0,0.3,0,0.6,0,0.9v0c0.5,10.3,9,18.6,19.5,18.6c10.8,0,19.5-8.7,19.5-19.5c0-3.4-0.9-6.5-2.3-9.3C135.8,94.2,140,88.7,140,82.2z
		 M127.7,102.5c0,3.1-2.5,5.6-5.6,5.6c-3.1,0-5.6-2.5-5.6-5.6c0-3.1,2.5-5.6,5.6-5.6C125.2,96.8,127.7,99.4,127.7,102.5z
		 M106.8,41.3c2.1,0,3.9,1.7,3.9,3.9c0,2.1-1.7,3.9-3.9,3.9c-2.1,0-3.9-1.7-3.9-3.9C102.9,43.1,104.6,41.3,106.8,41.3z M102.3,64.5
		c0-3.8,3.1-6.9,6.9-6.9c3.8,0,6.9,3.1,6.9,6.9c0,3.8-3.1,6.9-6.9,6.9C105.5,71.5,102.3,68.4,102.3,64.5z M130.1,83.5
		c-3.1,0-5.6-2.5-5.6-5.6c0-3.1,2.5-5.6,5.6-5.6c3.1,0,5.6,2.5,5.6,5.6C135.7,81,133.2,83.5,130.1,83.5z"/>
	<path fill="#025F55" d="M101.9,124.1L101.9,124.1c-6.6-3.6-11-10.7-11-18.7c0-6.2,2.6-11.8,6.8-15.6c-8.1-2.4-14-10-14-18.9
		c0-7.8,4.5-14.5,11-17.7c-1.3-1.6-2-3.7-2-5.9c0-2.8,1.2-5.3,3-7.1c-0.3-3.7-0.6-7.3-1-11c-0.4-4-4.2-6.7-8.1-5.8
		C61.7,29.7,37.9,36.2,15.3,43c-2.7,0.8-4.6,3.3-4.7,6.1C10.2,72.6,10,96.3,10,120.1v0.1c0,3.6,2.9,6.6,6.6,6.6h82.9
		C100.8,126.7,102,125.5,101.9,124.1z M32.2,52.4c-1.5,2.3-4.2,3.2-5.9,2c-1.8-1.2-2-4-0.5-6.2c1.5-2.3,4.2-3.2,5.9-2
		C33.5,47.3,33.7,50.1,32.2,52.4z M40.8,67.3c-5.1-0.6-9.1-4.7-6.3-9.8c1.1-2,2.7-3.4,4.6-4.6c0.8-0.5,1.6-1.1,2.2-1.9
		c0.9-1,2.2-1.9,3.7-2.2c3.4-0.8,6.8,0.8,7.4,3.7c0.3,1.4,0,3-1.1,4.2c-0.9,1.2-2.3,2-3.9,2.4c-0.6,0.1-1.2,0.2-1.8,0.2
		c-1,0-2-0.2-2.8-0.6c-1.5-0.7-2.5-1.9-2.8-3.3c0,0,0,0,0,0c-0.4,0.2-0.7,0.4-1.1,0.6c-5.5,3.7-4.4,8.7,1.9,10.2
		c4,0.9,8.3,0.3,12-1.4C49.4,66.9,45,67.9,40.8,67.3z M69.8,46.2c-1.9,1.8-5.5,1.2-8.1-1.4c-2.6-2.6-3.1-6.2-1.2-8.1
		c1.9-1.9,5.5-1.2,8.1,1.4C71.1,40.8,71.7,44.4,69.8,46.2z"/>
</g>
</svg>
